<svg width="550" height="225" viewBox="0 0 550 225" fill="none" xmlns="http://www.w3.org/2000/svg">
<rect width="550" height="225" fill="#575757"/>
<path d="M248.8 139.96C244.48 139.96 240.72 139.133 237.52 137.48C234.32 135.827 231.84 133.453 230.08 130.36C228.32 127.267 227.44 123.507 227.44 119.08H235.84C235.84 123.453 236.987 126.84 239.28 129.24C241.573 131.587 244.72 132.76 248.72 132.76C252.133 132.76 254.88 131.987 256.96 130.44C259.04 128.84 260.08 126.627 260.08 123.8C260.08 121.88 259.493 120.333 258.32 119.16C257.2 117.987 255.68 117.027 253.76 116.28C251.893 115.533 249.84 114.867 247.6 114.28C245.36 113.693 243.093 113.053 240.8 112.36C238.56 111.613 236.48 110.68 234.56 109.56C232.693 108.44 231.173 106.947 230 105.08C228.88 103.213 228.32 100.84 228.32 97.96C228.32 94.92 229.12 92.2267 230.72 89.88C232.373 87.48 234.64 85.6133 237.52 84.28C240.453 82.8933 243.893 82.2 247.84 82.2C251.68 82.2 255.12 82.92 258.16 84.36C261.2 85.7467 263.627 87.7467 265.44 90.36C267.307 92.92 268.267 96.0133 268.32 99.64H259.84C259.787 97.5067 259.2 95.6933 258.08 94.2C257.013 92.6533 255.573 91.48 253.76 90.68C252 89.8267 250.027 89.4 247.84 89.4C244.693 89.4 242.133 90.1467 240.16 91.64C238.187 93.1333 237.2 95.16 237.2 97.72C237.2 99.5333 237.76 100.973 238.88 102.04C240.053 103.107 241.573 103.987 243.44 104.68C245.36 105.32 247.44 105.933 249.68 106.52C251.973 107.053 254.24 107.693 256.48 108.44C258.72 109.133 260.773 110.093 262.64 111.32C264.56 112.493 266.08 114.093 267.2 116.12C268.373 118.093 268.96 120.627 268.96 123.72C268.96 127.027 268.08 129.907 266.32 132.36C264.56 134.76 262.16 136.627 259.12 137.96C256.08 139.293 252.64 139.96 248.8 139.96ZM298.591 94.04C302.538 94.04 305.978 95.0267 308.911 97C311.898 98.92 314.245 101.613 315.951 105.08C317.658 108.547 318.511 112.52 318.511 117C318.511 121.427 317.658 125.373 315.951 128.84C314.245 132.307 311.898 135.027 308.911 137C305.978 138.973 302.538 139.96 298.591 139.96C295.605 139.96 292.858 139.347 290.351 138.12C287.898 136.893 285.871 135.213 284.271 133.08V153.24H276.191V95H283.871L284.111 101C285.711 98.8667 287.765 97.1867 290.271 95.96C292.778 94.68 295.551 94.04 298.591 94.04ZM296.831 133.16C299.551 133.16 301.925 132.467 303.951 131.08C305.978 129.693 307.551 127.8 308.671 125.4C309.791 122.947 310.351 120.147 310.351 117C310.351 113.8 309.791 111 308.671 108.6C307.551 106.147 305.978 104.253 303.951 102.92C301.925 101.533 299.551 100.84 296.831 100.84C294.058 100.84 291.525 101.64 289.231 103.24C286.991 104.787 285.338 106.92 284.271 109.64V124.2C285.338 126.973 286.991 129.16 289.231 130.76C291.525 132.36 294.058 133.16 296.831 133.16ZM340.463 139V95H348.543V139H340.463ZM324.223 139V132.44H363.663V139H324.223ZM330.063 101.56V95H344.463V101.56H330.063ZM339.903 87.48V78.76H348.943V87.48H339.903ZM403.934 139V111.24C403.934 108.147 403.054 105.667 401.294 103.8C399.534 101.88 397.24 100.92 394.414 100.92C391.16 100.92 388.254 102.12 385.694 104.52C383.187 106.867 381.187 110.547 379.694 115.56L378.414 106.52C380.067 102.36 382.44 99.24 385.534 97.16C388.68 95.08 392.094 94.04 395.774 94.04C399.08 94.04 401.934 94.76 404.334 96.2C406.787 97.5867 408.68 99.5333 410.014 102.04C411.347 104.547 412.014 107.507 412.014 110.92V139H403.934ZM372.574 139V95H380.254L380.654 104.92V139H372.574ZM427.885 95V122.76C427.885 125.853 428.765 128.36 430.525 130.28C432.285 132.147 434.578 133.08 437.405 133.08C440.658 133.08 443.538 131.907 446.045 129.56C448.605 127.16 450.632 123.453 452.125 118.44L453.405 127.48C451.752 131.64 449.352 134.76 446.205 136.84C443.112 138.92 439.725 139.96 436.045 139.96C432.738 139.96 429.858 139.267 427.405 137.88C425.005 136.44 423.138 134.467 421.805 131.96C420.472 129.453 419.805 126.493 419.805 123.08V95H427.885ZM459.245 95V139H451.565L451.165 129.08V95H459.245ZM490.716 94.04C494.663 94.04 498.103 95.0267 501.036 97C504.023 98.92 506.37 101.613 508.076 105.08C509.783 108.547 510.636 112.52 510.636 117C510.636 121.427 509.783 125.373 508.076 128.84C506.37 132.307 504.023 135.027 501.036 137C498.103 138.973 494.663 139.96 490.716 139.96C487.73 139.96 484.983 139.347 482.476 138.12C480.023 136.893 477.996 135.213 476.396 133.08V153.24H468.316V95H475.996L476.236 101C477.836 98.8667 479.89 97.1867 482.396 95.96C484.903 94.68 487.676 94.04 490.716 94.04ZM488.956 133.16C491.676 133.16 494.05 132.467 496.076 131.08C498.103 129.693 499.676 127.8 500.796 125.4C501.916 122.947 502.476 120.147 502.476 117C502.476 113.8 501.916 111 500.796 108.6C499.676 106.147 498.103 104.253 496.076 102.92C494.05 101.533 491.676 100.84 488.956 100.84C486.183 100.84 483.65 101.64 481.356 103.24C479.116 104.787 477.463 106.92 476.396 109.64V124.2C477.463 126.973 479.116 129.16 481.356 130.76C483.65 132.36 486.183 133.16 488.956 133.16Z" fill="#D8FE05"/>
<path d="M147.458 92.0047C164.753 108.558 176.697 127.351 182.059 144.315C187.434 161.318 186.136 176.233 177.387 185.374C168.638 194.514 153.794 196.464 136.572 191.839C119.39 187.224 100.092 176.114 82.7975 159.561C65.5031 143.008 53.5587 124.214 48.1967 107.251C42.8221 90.2473 44.1202 75.3323 52.8688 66.192C61.6174 57.0516 76.4613 55.1019 93.6838 59.727C110.866 64.3412 130.164 75.4515 147.458 92.0047Z" stroke="#D8FE05" stroke-opacity="0.8" stroke-width="2"/>
<path d="M107.296 31.6725L114.124 45L120.953 31.6725L122.161 46.5985L133.569 36.8986L128.974 51.1508L143.226 46.555L133.526 57.9636L148.452 59.1718L135.124 66L148.452 72.8282L133.526 74.0364L143.226 85.445L128.974 80.8492L133.569 95.1014L122.161 85.4015L120.953 100.327L114.124 87L107.296 100.327L106.088 85.4015L94.6795 95.1014L99.2752 80.8492L85.023 85.445L94.723 74.0363L79.797 72.8282L93.1245 66L79.797 59.1718L94.723 57.9636L85.023 46.555L99.2752 51.1508L94.6795 36.8986L106.088 46.5985L107.296 31.6725Z" fill="#D8FE05"/>
</svg>
